# xmcd
#
# Track frame offsets: 
#        150
#        10580
#        26600
#        41702
#        55323
#        56343
#        70259
#        87097
#        109797
#        130651
#        148703
#        153035
#        171626
#        193677
#        208629
#        223041
#        237295
#        253376
#
# Disc length: 3492 seconds
#
# Revision: 0
# Processed by: cddbd v1.5.2PL0 Copyright (c) Steve Scherf et al.
# Submitted via: ExactAudioCopyFreeDBPlugin 1.0
#
DISCID=020da212
DTITLE=CosCash - Alles CosCash
DYEAR=2011
DGENRE=Hip-Hop
TTITLE0=Intro
TTITLE1=Mach Platz feat. Cronik 
TTITLE2=Alles CosCash
TTITLE3=Alles okay
TTITLE4=Skit - LiL Gangsta
TTITLE5=Boss Status feat. Tayfun Kaan
TTITLE6=Liebe fehlt feat. Josof
TTITLE7=8 Rapper 8 Bars  feat. Sleepwalker, Laas Unltd., Scorp da Lord
TTITLE7=, Illy Idol, Cronik, Jay Huttz, Killa Vinz, Oz
TTITLE8=Kopfnikka Sound feat. Cronik 
TTITLE9=Haus 33
TTITLE10=Skit - Na Sichi
TTITLE11=Kopf durch die Wand feat. Cronik
TTITLE12=Dieser Brief feat. Tayfun Kaan
TTITLE13=Mach kein Stress
TTITLE14=Wisch Deine Tränen weg feat. Tayfun Kaan
TTITLE15=Krasse Sicht feat. Cronik
TTITLE16=Spiegelbild feat. Tayfun Kaan
TTITLE17=Outro
EXTD=
EXTT0=
EXTT1=
EXTT2=
EXTT3=
EXTT4=
EXTT5=
EXTT6=
EXTT7=
EXTT8=
EXTT9=
EXTT10=
EXTT11=
EXTT12=
EXTT13=
EXTT14=
EXTT15=
EXTT16=
EXTT17=
PLAYORDER=
